<mxfile host="app.diagrams.net" modified="2023-12-10T19:39:41.573Z" agent="Mozilla/5.0 (Windows NT 10.0; Win64; x64; rv:120.0) Gecko/20100101 Firefox/120.0" etag="EBhMbP4_SQpAtgcjIbu4" version="22.1.7" type="device">
  <diagram name="Page-1" id="semwn-iIYnZZRk5PAA5E">
    <mxGraphModel dx="1290" dy="538" grid="1" gridSize="10" guides="1" tooltips="1" connect="1" arrows="1" fold="1" page="1" pageScale="1" pageWidth="827" pageHeight="1169" math="0" shadow="0">
      <root>
        <mxCell id="0" />
        <mxCell id="1" parent="0" />
        <mxCell id="1xbDQcwYYZ66u9yXxkVG-6" style="edgeStyle=orthogonalEdgeStyle;rounded=0;orthogonalLoop=1;jettySize=auto;html=1;" parent="1" source="1xbDQcwYYZ66u9yXxkVG-1" target="1xbDQcwYYZ66u9yXxkVG-2" edge="1">
          <mxGeometry relative="1" as="geometry" />
        </mxCell>
        <mxCell id="1xbDQcwYYZ66u9yXxkVG-1" value="Extract Data&lt;br&gt;(GoogleOCR)" style="whiteSpace=wrap;html=1;" parent="1" vertex="1">
          <mxGeometry x="210" y="160" width="120" height="60" as="geometry" />
        </mxCell>
        <mxCell id="1xbDQcwYYZ66u9yXxkVG-7" style="edgeStyle=orthogonalEdgeStyle;rounded=0;orthogonalLoop=1;jettySize=auto;html=1;" parent="1" source="1xbDQcwYYZ66u9yXxkVG-2" target="1xbDQcwYYZ66u9yXxkVG-3" edge="1">
          <mxGeometry relative="1" as="geometry" />
        </mxCell>
        <mxCell id="1xbDQcwYYZ66u9yXxkVG-2" value="Domain Identification and Link Storage" style="whiteSpace=wrap;html=1;" parent="1" vertex="1">
          <mxGeometry x="370" y="160" width="120" height="60" as="geometry" />
        </mxCell>
        <mxCell id="1xbDQcwYYZ66u9yXxkVG-8" style="edgeStyle=orthogonalEdgeStyle;rounded=0;orthogonalLoop=1;jettySize=auto;html=1;" parent="1" source="1xbDQcwYYZ66u9yXxkVG-3" target="1xbDQcwYYZ66u9yXxkVG-9" edge="1">
          <mxGeometry relative="1" as="geometry">
            <mxPoint x="600" y="280" as="targetPoint" />
          </mxGeometry>
        </mxCell>
        <mxCell id="1xbDQcwYYZ66u9yXxkVG-3" value="&lt;div&gt;Get More Company Information&lt;/div&gt;&lt;div&gt;(PeopleDataLabs)&lt;br&gt;&lt;/div&gt;" style="whiteSpace=wrap;html=1;" parent="1" vertex="1">
          <mxGeometry x="540" y="160" width="120" height="60" as="geometry" />
        </mxCell>
        <mxCell id="1xbDQcwYYZ66u9yXxkVG-5" style="edgeStyle=orthogonalEdgeStyle;rounded=0;orthogonalLoop=1;jettySize=auto;html=1;" parent="1" source="1xbDQcwYYZ66u9yXxkVG-4" target="1xbDQcwYYZ66u9yXxkVG-1" edge="1">
          <mxGeometry relative="1" as="geometry" />
        </mxCell>
        <mxCell id="1xbDQcwYYZ66u9yXxkVG-4" value="&lt;div&gt;Data Collection&lt;/div&gt;&lt;div&gt;(Beautiful Soup)&lt;/div&gt;" style="whiteSpace=wrap;html=1;" parent="1" vertex="1">
          <mxGeometry x="40" y="160" width="120" height="60" as="geometry" />
        </mxCell>
        <mxCell id="1xbDQcwYYZ66u9yXxkVG-9" value="&lt;div&gt;Deduplication&lt;/div&gt;&lt;div&gt;(python code)&lt;br&gt;&lt;/div&gt;" style="whiteSpace=wrap;html=1;" parent="1" vertex="1">
          <mxGeometry x="700" y="160" width="120" height="60" as="geometry" />
        </mxCell>
        <mxCell id="ik-u8mV4kZrgJieDQz3J-2" value="&lt;div&gt;Store Data&lt;/div&gt;&lt;div&gt;(PostgreSQL)&lt;br&gt;&lt;/div&gt;" style="whiteSpace=wrap;html=1;" parent="1" vertex="1">
          <mxGeometry x="50" y="270" width="120" height="60" as="geometry" />
        </mxCell>
        <mxCell id="ik-u8mV4kZrgJieDQz3J-3" style="edgeStyle=orthogonalEdgeStyle;rounded=0;orthogonalLoop=1;jettySize=auto;html=1;exitX=1;exitY=0.5;exitDx=0;exitDy=0;entryX=0;entryY=0.5;entryDx=0;entryDy=0;" parent="1" source="1xbDQcwYYZ66u9yXxkVG-9" target="ik-u8mV4kZrgJieDQz3J-2" edge="1">
          <mxGeometry relative="1" as="geometry">
            <mxPoint x="220" y="310" as="targetPoint" />
            <mxPoint x="180" y="310" as="sourcePoint" />
            <Array as="points">
              <mxPoint x="830" y="190" />
              <mxPoint x="830" y="245" />
              <mxPoint x="30" y="245" />
              <mxPoint x="30" y="300" />
            </Array>
          </mxGeometry>
        </mxCell>
      </root>
    </mxGraphModel>
  </diagram>
</mxfile>
